<?xml version="1.0" encoding="iso-8859-1"?>
<!-- Generator: Adobe Illustrator 29.7.1, SVG Export Plug-In . SVG Version: 9.03 Build 0)  -->
<svg version="1.1" id="Calque_1" xmlns="http://www.w3.org/2000/svg" xmlns:xlink="http://www.w3.org/1999/xlink" x="0px" y="0px"
	 viewBox="0 0 1012.576 451.749" style="enable-background:new 0 0 1012.576 451.749;" xml:space="preserve">
<g>
	<g>
		<g>
			<g>
				<g>
					<path style="fill:#98449E;" d="M212.793,288.828c0-5.931,1.034-10.581,3.1-13.948c2.069-3.364,5.141-5.874,9.217-7.529
						c4.076-1.653,9.133-2.68,15.161-3.081c6.03-0.399,13.064-0.599,21.104-0.599c4.481,0,8.499,0.058,12.06,0.171
						c3.559,0.115,6.746,0.401,9.561,0.855c2.813,0.458,5.256,1.172,7.322,2.14c2.069,0.97,3.903,2.254,5.513,3.851v-7.701
						c0-2.166-0.201-3.992-0.601-5.477c-0.405-1.482-1.179-2.68-2.326-3.595c-1.149-0.911-2.731-1.567-4.738-1.968
						c-2.01-0.399-4.624-0.599-7.839-0.599h-19.466c-4.825,0-8.127,0.401-9.907,1.197c-1.781,0.8-2.728,2.738-2.843,5.819h-32.044
						c0-5.931,0.746-10.696,2.239-14.29c1.493-3.595,3.847-6.36,7.064-8.301c3.213-1.939,7.322-3.252,12.318-3.937
						c4.996-0.685,10.996-1.026,18.004-1.026h38.418c11.485,0,20.157,2.626,26.014,7.872c5.859,5.25,8.787,13.066,8.787,23.446
						v57.333h-31.353v-9.926c-2.3,2.395-4.338,4.307-6.117,5.732c-1.783,1.428-3.676,2.567-5.686,3.423
						c-2.01,0.857-4.366,1.426-7.062,1.712c-2.7,0.284-6.117,0.428-10.251,0.428h-22.569c-5.054,0-9.62-0.315-13.696-0.941
						c-4.079-0.625-7.553-1.853-10.422-3.68c-2.873-1.824-5.082-4.364-6.634-7.615c-1.549-3.252-2.326-7.445-2.326-12.579V288.828z
						 M271.714,300.295c5.625,0,10.104-0.198,13.438-0.599c3.33-0.399,5.827-0.998,7.493-1.797c1.664-0.797,2.728-1.768,3.187-2.91
						c0.459-1.139,0.69-2.451,0.69-3.935c0-1.597-0.201-2.966-0.604-4.107c-0.402-1.14-1.292-2.054-2.67-2.738
						c-1.378-0.685-3.388-1.198-6.03-1.541c-2.644-0.342-6.262-0.513-10.853-0.513h-14.644c-3.447,0-6.29,0.2-8.529,0.599
						c-2.239,0.401-3.962,1.026-5.167,1.883c-1.207,0.855-2.04,1.912-2.499,3.166c-0.461,1.256-0.69,2.796-0.69,4.621
						c0,2.852,1.264,4.877,3.791,6.075c2.525,1.198,7.064,1.797,13.612,1.797H271.714z"/>
					<g>
						<path style="fill:#98449E;" d="M706.742,237.314c-3.505-2.508-7.408-4.219-11.717-5.133
							c-4.305-0.912-8.585-1.369-12.834-1.369h-49.444c-4.253,0-8.527,0.457-12.834,1.369c-4.309,0.914-8.215,2.626-11.717,5.133
							c-3.504,2.511-6.346,6.019-8.527,10.525c-2.183,4.509-3.274,10.354-3.274,17.542v20.88c0,7.188,1.091,13.035,3.274,17.542
							c2.181,4.509,5.024,8.016,8.527,10.525c3.502,2.51,7.408,4.221,11.717,5.133c4.307,0.912,8.581,1.369,12.834,1.369h49.444
							c4.249,0,8.529-0.457,12.834-1.369c4.309-0.912,8.211-2.624,11.717-5.133c3.5-2.51,6.343-6.017,8.526-10.525
							c2.181-4.507,3.274-10.354,3.274-17.542v-20.88c0-7.188-1.092-13.033-3.274-17.542
							C713.084,243.333,710.242,239.826,706.742,237.314z M685.464,281.812c0,2.968-0.318,5.364-0.949,7.188
							c-0.631,1.826-1.896,3.281-3.789,4.364c-1.894,1.085-4.508,1.826-7.838,2.226c-3.335,0.4-7.64,0.598-12.921,0.598h-7.926
							c-7.582,0-13.24-1.139-16.971-3.423c-3.734-2.279-5.599-6.559-5.599-12.835v-8.216c0-6.272,1.865-10.55,5.599-12.833
							c3.73-2.283,9.388-3.423,16.971-3.423h7.926c5.281,0,9.586,0.2,12.921,0.598c3.329,0.402,5.944,1.142,7.838,2.226
							c1.894,1.085,3.159,2.567,3.789,4.45c0.631,1.883,0.949,4.252,0.949,7.102V281.812z"/>
						<path style="fill:#98449E;" d="M555.469,230.812c-3.789,0-7.408,0.286-10.854,0.855c-3.444,0.571-6.607,1.54-9.474,2.909
							c-2.871,1.369-5.34,3.225-7.408,5.562c-2.066,2.34-3.561,5.221-4.479,8.642h-0.343v-16.599h-31.012v87.281h33.079V271.2
							c0-5.246,1.781-9.012,5.342-11.295c3.556-2.281,8.208-3.423,13.952-3.423c3.331,0,6.032,0.343,8.1,1.028
							c2.066,0.684,3.673,1.71,4.823,3.079c1.146,1.369,1.921,3.081,2.325,5.135c0.401,2.054,0.604,4.45,0.604,7.188h28.597
							c0.115-1.596,0.199-2.995,0.261-4.193c0.056-1.198,0.086-2.367,0.086-3.509c0-12.093-2.586-20.849-7.755-26.27
							C576.143,233.523,567.531,230.812,555.469,230.812z"/>
						<path style="fill:#98449E;" d="M453.849,286.774c0,3.996-0.922,6.734-2.756,8.216c-1.84,1.483-5.457,2.224-10.856,2.224
							c-4.021,0-7.148-0.484-9.386-1.455c-2.242-0.967-3.362-3.107-3.362-6.417v-33.545h51.339v-23.616h-51.339v-20.537h-33.077
							v20.537h-16.539v23.616h16.539v34.572c0,6.049,1.033,11.038,3.099,14.975c2.07,3.936,4.826,7.045,8.271,9.326
							c3.446,2.285,7.464,3.88,12.06,4.792c4.593,0.912,9.415,1.369,14.471,1.369h13.093c6.547,0,12.204-0.744,16.971-2.224
							c4.763-1.481,8.641-3.536,11.629-6.161c2.984-2.624,5.194-5.733,6.632-9.328c1.434-3.595,2.153-7.445,2.153-11.552v-10.611
							h-28.941V286.774z"/>
						<rect x="728.014" y="232.181" style="fill:#98449E;" width="33.079" height="87.281"/>
						<rect x="728.014" y="195.555" style="fill:#98449E;" width="33.079" height="25.672"/>
						<path style="fill:#98449E;" d="M888.911,280.7c-0.747-3.479-2.526-6.531-5.338-9.156c-2.816-2.624-7.065-4.707-12.748-6.247
							c-5.687-1.54-13.47-2.31-23.344-2.31h-22.916c-4.366,0-7.839-0.086-10.423-0.257c-2.582-0.171-4.564-0.455-5.942-0.855
							c-1.38-0.4-2.298-0.942-2.758-1.626c-0.46-0.685-0.688-1.483-0.688-2.397c0-1.481,0.286-2.652,0.862-3.507
							c0.573-0.857,1.691-1.512,3.358-1.969c1.664-0.455,3.964-0.741,6.891-0.857c2.929-0.112,6.806-0.17,11.629-0.17
							c4.938,0,8.93,0.084,11.974,0.257c3.042,0.17,5.428,0.457,7.149,0.855c1.725,0.402,2.957,1,3.705,1.797
							c0.746,0.8,1.349,1.826,1.808,3.079h33.079c-0.115-5.133-0.805-9.412-2.066-12.835c-1.267-3.422-3.736-6.131-7.408-8.128
							c-3.676-1.996-8.846-3.423-15.504-4.278c-6.662-0.857-15.393-1.283-26.188-1.283h-23.085c-5.746,0-11.057,0.286-15.936,0.855
							c-4.884,0.571-9.131,1.74-12.748,3.509c-3.62,1.771-6.461,4.278-8.529,7.53c-2.066,3.25-3.101,7.614-3.101,13.09
							c0,6.051,0.631,11.04,1.896,14.977c1.261,3.934,3.444,7.074,6.546,9.412c3.103,2.338,7.207,3.995,12.319,4.962
							c5.108,0.973,11.514,1.455,19.209,1.455h31.011c5.859,0,9.703,0.543,11.542,1.626c1.836,1.087,2.756,2.94,2.756,5.563
							c0,1.369-0.288,2.454-0.861,3.25c-0.577,0.8-1.61,1.455-3.101,1.969c-1.495,0.512-3.505,0.855-6.03,1.026
							c-2.526,0.171-5.744,0.257-9.647,0.257h-11.717c-4.711,0-8.414-0.198-11.109-0.598c-2.701-0.4-4.74-0.942-6.118-1.626
							c-1.378-0.685-2.269-1.512-2.67-2.481c-0.404-0.969-0.604-2.081-0.604-3.34h-34.112c0,5.365,0.747,9.87,2.239,13.521
							c1.493,3.654,3.877,6.59,7.151,8.814c3.274,2.226,7.581,3.823,12.922,4.792c5.34,0.967,11.799,1.455,19.382,1.455H843
							c9.415,0,17.168-0.428,23.259-1.283c6.086-0.857,10.878-2.397,14.383-4.621c3.504-2.224,5.944-5.19,7.322-8.899
							c1.378-3.705,2.068-8.471,2.068-14.29C890.033,287.859,889.659,284.18,888.911,280.7z"/>
					</g>
				</g>
			</g>
			<g>
				<path style="fill:#98449E;" d="M122.544,211.922h33.228v79.994h50.013v27.656h-83.242V211.922z"/>
			</g>
		</g>
		<g>
			<g>
				<path style="fill:#98449E;" d="M228.671,189c-1.037-1.073-2.302-1.597-3.887-1.597h-31.567h-0.052l-0.042,0.02l0.094-0.02
					c-1.342,0-2.371-0.367-3.153-1.107c-0.789-0.758-1.181-1.734-1.181-2.986v-20.92h35.843c1.199,0,2.582-0.157,3.779-1.341
					c1.073-1.058,1.6-2.368,1.6-3.914c0-1.515-0.537-2.859-1.639-3.967c-1.103-1.126-2.403-1.684-3.894-1.684h-35.689v-5.551v-1.866
					c0-1.471-0.534-2.781-1.548-3.857c-1.05-1.095-2.341-1.631-3.838-1.631c-1.49,0-2.816,0.55-3.891,1.665
					c-1.096,1.119-1.653,2.461-1.653,3.978v43.739c0,7.002,3.309,10.406,10.094,10.406l36.894-0.038c1.43,0,2.703-0.516,3.763-1.575
					c1.089-1.068,1.603-2.378,1.603-3.909C230.309,191.369,229.798,190.138,228.671,189L228.671,189z"/>
				<path style="fill:#98449E;" d="M258.783,151.507c-1.291,0-2.646,0.17-3.788,1.28c-1.06,1.066-1.597,2.392-1.597,3.928
					c0,1.527,0.562,2.856,1.64,3.975c1.099,1.119,2.402,1.673,3.894,1.673l0.813,0.006c0,0,0.152,0,0.253,0h19.513
					c1.282,0,2.263,0.382,3.04,1.164c0.756,0.767,1.115,1.767,1.115,3.021l0.059,16.754c0,1.254-0.376,2.213-1.174,2.967
					c-0.803,0.747-1.837,1.13-3.135,1.13h-26.14c-1.355,0-2.401-0.382-3.22-1.13c-0.804-0.754-1.188-1.713-1.188-2.967l-0.06-39.293
					c0-1.467-0.511-2.762-1.55-3.853c-1.036-1.096-2.324-1.651-3.819-1.651c-1.498,0-2.814,0.57-3.903,1.684
					c-1.096,1.116-1.656,2.456-1.656,3.977v43.617c0,7.01,3.518,10.555,10.417,10.555l35.919,0.024
					c6.891,0,10.378-3.526,10.378-10.464v-26.131c0-6.805-3.32-10.145-10.136-10.234L258.783,151.507L258.783,151.507z"/>
				<path style="fill:#98449E;" d="M356.711,161.137c1.055-1.063,1.6-2.386,1.6-3.902c0-1.539-0.546-2.884-1.643-3.989
					c-1.131-1.153-2.433-1.744-3.884-1.744l-40.204,0.005c-6.702,0.145-10.055,3.588-10.013,10.224
					c0,0.127-0.217,14.227-0.217,16.343v14.77c0,1.476,0.54,2.795,1.601,3.882c1.054,1.09,2.343,1.641,3.776,1.641
					c1.504,0,2.815-0.551,3.878-1.641c1.087-1.147,1.649-2.446,1.649-3.882l0.016-9.744l0.06-10.582l0.016-7.37
					c0-1.803,0.841-2.728,2.495-2.728l37.084-0.006C354.226,162.415,355.572,162.261,356.711,161.137L356.711,161.137z"/>
				<path style="fill:#98449E;" d="M169.345,153.098c-1.029-1.051-2.316-1.576-3.891-1.576h-29.6
					c-0.505,0.031-0.947-0.019-1.151-0.024c-0.771-0.02-1.254-0.28-1.695-0.955c-1.011-1.459-3.167-1.976-4.813-1.976
					c-1.66,0-3.176,0.668-4.274,1.887c-1.036,1.164-1.241,2.397-1.241,3.893v6.569c-0.023,0.271-0.036,0.556-0.036,0.871v30.999
					c0,1.484,0.557,2.793,1.642,3.911c1.087,1.11,2.399,1.67,3.908,1.67c1.483,0,2.768-0.532,3.802-1.602
					c1.05-1.064,1.568-2.364,1.568-3.914v-26.18c0-1.3,0.436-2.425,1.193-3.122c0.791-0.742,1.807-1.131,3.112-1.137h27.735
					c1.605,0,2.793-0.467,3.772-1.43c1.071-1.053,1.609-2.374,1.609-3.905C170.986,155.553,170.443,154.201,169.345,153.098
					L169.345,153.098z"/>
				<path style="fill:#98449E;" d="M345.054,177.424L345.054,177.424L345.054,177.424c0-1.673-0.623-3.099-1.866-4.218
					c-1.184-1.08-2.651-1.644-4.329-1.644h-10.49c-1.69,0-3.144,0.564-4.343,1.644c-1.245,1.119-1.864,2.546-1.864,4.218l0,0v0.01
					c0,1.667,0.619,3.091,1.864,4.217c1.199,1.087,2.653,1.637,4.343,1.637h10.49c1.678,0,3.145-0.55,4.329-1.637
					c1.243-1.126,1.866-2.55,1.866-4.217V177.424L345.054,177.424z"/>
			</g>
		</g>
	</g>
</g>
</svg>
