<?xml version="1.0" encoding="iso-8859-1"?>
<!-- Generator: Adobe Illustrator 30.0.0, SVG Export Plug-In . SVG Version: 9.03 Build 0)  -->
<svg version="1.1" id="Calque_1" xmlns="http://www.w3.org/2000/svg" xmlns:xlink="http://www.w3.org/1999/xlink" x="0px" y="0px"
	 viewBox="0 0 912.864 386.636" style="enable-background:new 0 0 912.864 386.636;" xml:space="preserve">
<g>
	<rect x="1.212" y="1.586" style="fill:none;" width="911.033" height="384.682"/>
	<g>
		<g>
			<path style="fill:#FFC629;" d="M509.527,171.513"/>
			<g>
				<path style="fill:#FFC629;" d="M647.841,169.804h30.237v106.823h-30.237V169.804z"/>
				<g>
					<path style="fill:#FFC629;" d="M749.949,169.844c-30.657,0-55.496,23.906-55.496,53.396c0,29.503,24.839,53.411,55.496,53.411
						c30.657,0,55.499-23.908,55.499-53.411C805.449,193.749,780.607,169.844,749.949,169.844z M749.949,251.937
						c-16.478,0-29.831-12.841-29.831-28.697c0-15.845,13.353-28.687,29.831-28.687c16.471,0,29.82,12.842,29.82,28.687
						C779.769,239.096,766.42,251.937,749.949,251.937z"/>
				</g>
				<g>
					<g>
						<path style="fill:#FFC629;" d="M429.908,169.787v62.447c0,13.917,4.966,24.91,14.762,32.637
							c9.876,7.799,21.888,11.756,35.714,11.756c13.796,0,25.82-3.956,35.692-11.756c9.796-7.737,14.758-18.72,14.758-32.637
							v-62.447h-27.475v62.447c0,6.142-2.315,10.96-6.868,14.349c-4.451,3.321-9.872,4.989-16.107,4.989
							c-6.258,0-11.675-1.667-16.122-4.989c-4.565-3.389-6.879-8.207-6.879-14.349v-62.447H429.908z"/>
					</g>
					<path style="fill:#FFC629;" d="M565.795,250.847l-22.479-81.052l28.354-0.02l17.463,62.656l17.274-62.638l27.968-0.02
						l-22.49,81.074c-2.504,9.059-5.091,15.622-7.781,19.687c-2.686,4.065-7.97,6.093-15.842,6.093
						c-6.909,0-11.853-2.255-14.83-6.79C570.45,265.312,567.912,258.991,565.795,250.847z"/>
					<path style="fill:#FFC629;" d="M386.264,169.793v8.349c-7.948-4.854-17.257-7.822-27.263-8.239
						c-0.813-0.052-1.623-0.087-2.423-0.087c-30.664,0-55.511,23.912-55.511,53.4c0,0.002,0,0.002,0,0.002c0,0.01,0,0.015,0,0.022
						c0,29.503,24.839,53.411,55.496,53.411c10.929,0,21.113-3.051,29.701-8.301v8.178h25.82V169.793H386.264z M386.383,223.239
						c0,15.856-13.351,28.697-29.82,28.697c-16.477,0-29.831-12.841-29.831-28.697c0-15.845,13.354-28.687,29.831-28.687
						C373.032,194.552,386.383,207.394,386.383,223.239z"/>
				</g>
			</g>
			<g>
				<g>
					<path style="fill:#FFC629;" d="M235.482,128.195c0.273,0.468,0.907,1.783,1.149,2.262
						c-18.973-0.706-41.236,6.504-61.836,21.664c-22.265,16.386-37.189,39.025-43.494,60.466c-1.612-2.042-2.479-3.106-3.542-5.126
						c-5.373-10.193-5.885-23.793-1.586-36.943c6.478-12.732,18.373-27.797,36.97-40.455c10.381-7.067,21.031-13.4,31.662-16.476
						C212.261,111.057,227.919,115.056,235.482,128.195z"/>
					<path style="fill:#FFC629;" d="M280.932,128.471c-15.061-25.958-47.366-32.855-83.49-18.806
						c18.582-2.887,34.954,2.611,43.018,16.51c13.368,23.034-3.701,61.363-34.956,84.412c-31.267,23.055-67.446,23.073-80.816,0.036
						c-6.198-10.687-6.393-24.454-1.71-38.449c-16.113,27.472-20.061,57.152-7.698,78.454c19.56,33.711,72.497,33.687,118.235-0.047
						C279.262,216.846,300.492,162.176,280.932,128.471z"/>
				</g>
			</g>
		</g>
		<g>
			<g>
				<path style="fill:#FFC629;" d="M405.921,147.336c-1.027-1.063-2.28-1.582-3.85-1.582h-31.265h-0.052l-0.042,0.02l0.093-0.02
					c-1.33,0-2.349-0.364-3.123-1.097c-0.782-0.751-1.17-1.717-1.17-2.957v-20.72h35.501c1.187,0,2.557-0.155,3.742-1.329
					c1.063-1.048,1.585-2.345,1.585-3.877c0-1.501-0.532-2.832-1.623-3.929c-1.093-1.115-2.38-1.668-3.857-1.668h-35.348v-5.498
					v-1.848c0-1.457-0.528-2.755-1.533-3.82c-1.04-1.085-2.319-1.615-3.801-1.615c-1.476,0-2.789,0.545-3.854,1.649
					c-1.086,1.108-1.637,2.437-1.637,3.94v43.321c0,6.935,3.277,10.307,9.998,10.307l36.542-0.037c1.416,0,2.677-0.511,3.727-1.56
					c1.078-1.058,1.588-2.356,1.588-3.872C407.543,149.682,407.037,148.463,405.921,147.336L405.921,147.336z"/>
				<path style="fill:#FFC629;" d="M435.745,110.201c-1.279,0-2.621,0.169-3.752,1.268c-1.05,1.056-1.582,2.369-1.582,3.89
					c0,1.512,0.557,2.829,1.624,3.937c1.089,1.108,2.379,1.657,3.857,1.657l0.805,0.006c0,0,0.151,0,0.251,0h19.326
					c1.27,0,2.242,0.378,3.011,1.153c0.748,0.76,1.104,1.75,1.104,2.992l0.058,16.594c0,1.242-0.372,2.192-1.163,2.939
					c-0.795,0.74-1.82,1.119-3.106,1.119h-25.891c-1.342,0-2.378-0.379-3.19-1.119c-0.796-0.747-1.177-1.697-1.177-2.939
					l-0.059-38.918c0-1.453-0.506-2.736-1.535-3.816c-1.026-1.085-2.301-1.635-3.782-1.635c-1.484,0-2.787,0.564-3.866,1.668
					c-1.085,1.105-1.64,2.432-1.64,3.939v43.2c0,6.943,3.485,10.454,10.317,10.454l35.576,0.023c6.825,0,10.279-3.493,10.279-10.364
					v-25.881c0-6.74-3.288-10.049-10.04-10.136L435.745,110.201L435.745,110.201z"/>
				<path style="fill:#FFC629;" d="M532.738,119.739c1.045-1.053,1.585-2.363,1.585-3.865c0-1.524-0.541-2.856-1.627-3.951
					c-1.121-1.142-2.41-1.727-3.847-1.727l-39.819,0.005c-6.638,0.144-9.959,3.554-9.917,10.127c0,0.126-0.215,14.091-0.215,16.187
					v14.629c0,1.462,0.535,2.769,1.586,3.845c1.044,1.08,2.321,1.626,3.74,1.626c1.489,0,2.788-0.546,3.841-1.626
					c1.077-1.136,1.634-2.423,1.634-3.845l0.016-9.651l0.059-10.481l0.016-7.299c0-1.785,0.833-2.702,2.471-2.702l36.73-0.006
					C530.277,121.005,531.61,120.853,532.738,119.739L532.738,119.739z"/>
				<path style="fill:#FFC629;" d="M347.162,111.777c-1.019-1.041-2.294-1.561-3.854-1.561H313.99
					c-0.5,0.031-0.938-0.019-1.14-0.024c-0.764-0.02-1.242-0.277-1.679-0.946c-1.001-1.446-3.137-1.957-4.767-1.957
					c-1.644,0-3.146,0.662-4.233,1.869c-1.026,1.152-1.229,2.374-1.229,3.856v6.506c-0.023,0.269-0.035,0.551-0.035,0.863v30.703
					c0,1.47,0.552,2.767,1.627,3.874c1.077,1.1,2.376,1.654,3.871,1.654c1.469,0,2.742-0.527,3.766-1.587
					c1.04-1.054,1.553-2.342,1.553-3.877v-25.93c0-1.288,0.432-2.402,1.182-3.092c0.784-0.734,1.79-1.121,3.083-1.126h27.47
					c1.59,0,2.767-0.463,3.736-1.416c1.061-1.043,1.593-2.351,1.593-3.868C348.787,114.208,348.249,112.869,347.162,111.777
					L347.162,111.777z"/>
				<path style="fill:#FFC629;" d="M521.192,135.871L521.192,135.871L521.192,135.871c0-1.657-0.617-3.07-1.848-4.178
					c-1.173-1.07-2.625-1.629-4.288-1.629h-10.389c-1.673,0-3.114,0.559-4.301,1.629c-1.233,1.108-1.847,2.521-1.847,4.178l0,0v0.01
					c0,1.651,0.613,3.062,1.847,4.177c1.187,1.076,2.628,1.621,4.301,1.621h10.389c1.662,0,3.115-0.545,4.288-1.621
					c1.231-1.115,1.848-2.526,1.848-4.177V135.871L521.192,135.871z"/>
			</g>
		</g>
		<path style="fill:#FFC629;" d="M247.134,147.174"/>
	</g>
</g>
</svg>
