<?xml version="1.0" encoding="iso-8859-1"?>
<!-- Generator: Adobe Illustrator 29.7.1, SVG Export Plug-In . SVG Version: 9.03 Build 0)  -->
<svg version="1.1" id="Calque_1" xmlns="http://www.w3.org/2000/svg" xmlns:xlink="http://www.w3.org/1999/xlink" x="0px" y="0px"
	 viewBox="0 0 543.99 205.45" style="enable-background:new 0 0 543.99 205.45;" xml:space="preserve">
<g transform="translate(81.5985 30.8175) scale(0.7)">
<g>
	<path style="fill:#12F15C;" d="M109.18,51.82c-1.06-1.1-2.36-1.64-3.99-1.64H72.74L72.7,50.2l0.1-0.02c-1.38,0-2.43-0.38-3.24-1.14
		c-0.81-0.78-1.21-1.78-1.21-3.06V24.51h36.79c1.23,0,2.65-0.16,3.88-1.38c1.1-1.09,1.64-2.43,1.64-4.02s-0.55-2.93-1.68-4.07
		c-1.13-1.16-2.47-1.73-4-1.73H68.35V5.7c0-1.51-0.55-2.85-1.59-3.96c-1.08-1.12-2.4-1.67-3.94-1.67s-2.89,0.56-3.99,1.71
		c-1.13,1.15-1.7,2.53-1.7,4.08v44.89c0,7.19,3.4,10.68,10.36,10.68l37.87-0.04c1.47,0,2.77-0.53,3.86-1.62
		c1.12-1.1,1.65-2.44,1.65-4.01s-0.52-2.78-1.68-3.95l0,0L109.18,51.82z"/>
	<path style="fill:#12F15C;" d="M140.09,13.34c-1.33,0-2.72,0.17-3.89,1.31c-1.09,1.09-1.64,2.46-1.64,4.03s0.58,2.93,1.68,4.08
		c1.13,1.15,2.46,1.72,4,1.72h0.83c0,0,0.16,0,0.26,0h20.03c1.32,0,2.32,0.39,3.12,1.19c0.78,0.79,1.14,1.81,1.14,3.1l0.06,17.2
		c0,1.29-0.39,2.27-1.2,3.05c-0.82,0.77-1.89,1.16-3.22,1.16h-26.83c-1.39,0-2.46-0.39-3.31-1.16c-0.82-0.77-1.22-1.76-1.22-3.05
		l-0.06-40.33c0-1.51-0.52-2.84-1.59-3.95C127.19,0.57,125.87,0,124.33,0s-2.89,0.58-4.01,1.73s-1.7,2.52-1.7,4.08v44.77
		c0,7.2,3.61,10.83,10.69,10.83l36.87,0.02c7.07,0,10.65-3.62,10.65-10.74V23.87c0-6.98-3.41-10.41-10.4-10.5l-26.35-0.03l0,0
		L140.09,13.34z"/>
	<path style="fill:#12F15C;" d="M240.6,23.22c1.08-1.09,1.64-2.45,1.64-4s-0.56-2.96-1.69-4.09c-1.16-1.18-2.5-1.79-3.99-1.79H195.3
		c-6.88,0.15-10.32,3.69-10.28,10.5c0,0.13-0.22,14.6-0.22,16.77v15.16c0,1.51,0.55,2.87,1.64,3.98c1.08,1.12,2.4,1.68,3.88,1.68
		c1.54,0,2.89-0.57,3.98-1.68c1.12-1.18,1.69-2.51,1.69-3.98l0.02-10l0.06-10.86l0.02-7.56c0-1.85,0.86-2.8,2.56-2.8h38.06
		c1.33,0,2.71-0.16,3.88-1.32l0,0L240.6,23.22z"/>
	<path style="fill:#12F15C;" d="M48.29,14.97c-1.06-1.08-2.38-1.62-3.99-1.62H13.92c-0.52,0.03-0.97-0.02-1.18-0.02
		c-0.79-0.02-1.29-0.29-1.74-0.98c-1.04-1.5-3.25-2.03-4.94-2.03s-3.26,0.69-4.39,1.94c-1.06,1.19-1.27,2.46-1.27,4V23
		c-0.02,0.28-0.04,0.57-0.04,0.89v31.82c0,1.52,0.57,2.87,1.69,4.01c1.12,1.14,2.46,1.71,4.01,1.71s2.84-0.55,3.9-1.64
		c1.08-1.09,1.61-2.43,1.61-4.02V28.9c0-1.33,0.45-2.49,1.22-3.2c0.81-0.76,1.85-1.16,3.19-1.17h28.47c1.65,0,2.87-0.48,3.87-1.47
		c1.1-1.08,1.65-2.44,1.65-4.01S49.41,16.1,48.29,14.97C48.29,14.97,48.29,14.97,48.29,14.97z"/>
	<path style="fill:#12F15C;" d="M228.63,39.94L228.63,39.94c0-1.72-0.64-3.18-1.91-4.33c-1.22-1.11-2.72-1.69-4.44-1.69h-10.77
		c-1.73,0-3.23,0.58-4.46,1.69c-1.28,1.15-1.91,2.61-1.91,4.33l0,0c0,1.72,0.64,3.18,1.91,4.34c1.23,1.12,2.72,1.68,4.46,1.68h10.77
		c1.72,0,3.23-0.56,4.44-1.68c1.28-1.16,1.91-2.62,1.91-4.33l0,0V39.94z"/>
</g>
<rect x="110.581" y="111.679" transform="matrix(0.003 -1 1 0.003 34.4213 296.041)" style="fill:#12F15C;" width="110.18" height="38.16"/>
<path style="fill:#12F15C;" d="M258.65,45.39l-14.11-0.04l-0.09,30.52l13.59,0.04c23.23,0.07,33.73,12.8,33.67,31.16
	c-0.05,18.37-10.59,30.21-33.83,30.14l-13.62-0.04l0.18-61.31l-38.16-0.11l-0.32,110.18l38.16,0.11l0.05-18.34l14.14,0.04
	c44.03,0.13,67.57-24.1,67.68-60.84s-23.32-61.39-67.35-61.52"/>
<polygon style="fill:#12F15C;" points="497.94,123.77 537.68,76.67 493.76,76.54 445.08,134.06 445.25,76.61 407.09,76.29 
	406.77,186.46 445.14,186.6 472.83,153.66 501.09,205.32 543.99,205.45 "/>
<rect x="332.332" y="91.314" transform="matrix(0.003 -1 1 0.003 255.0558 476.6021)" style="fill:#12F15C;" width="68.41" height="38.16"/>
<rect x="351.091" y="152.054" transform="matrix(0.003 -1 1 0.003 194.1357 536.9812)" style="fill:#12F15C;" width="30.53" height="38.16"/>
<polygon style="fill:#12F15C;" points="0.1,75.44 0,110.41 44.48,110.53 44.25,185.73 82.41,185.84 82.63,110.64 125.31,110.75 
	125.41,75.78 "/>

</g>
</svg>
