<?xml version="1.0" encoding="UTF-8"?>
<svg id="Calque_1" data-name="Calque 1" xmlns="http://www.w3.org/2000/svg" viewBox="0 0 1005.84 384.68">
  <defs>
    <style>
      .cls-1 {
        fill: none;
      }

      .cls-2 {
        fill: #ffcd00;
      }
    </style>
  </defs>
  <rect class="cls-1" width="1005.84" height="384.68"/>
  <g>
    <g>
      <path class="cls-2" d="M208.93,148.61c-.98-1.02-2.18-1.51-3.68-1.51h-29.97l-.04.02.09-.02c-1.27,0-2.25-.35-2.99-1.05-.75-.72-1.12-1.64-1.12-2.83v-19.83h33.98c1.14,0,2.45-.15,3.58-1.27,1.02-1,1.52-2.24,1.52-3.71s-.51-2.71-1.55-3.76c-1.05-1.07-2.28-1.6-3.69-1.6h-33.83v-7.03c0-1.39-.51-2.64-1.47-3.66-1-1.04-2.22-1.55-3.64-1.55s-2.67.52-3.69,1.58c-1.04,1.06-1.57,2.33-1.57,3.77v41.46c0,6.64,3.14,9.86,9.57,9.86l34.98-.04c1.36,0,2.56-.49,3.57-1.49,1.03-1.01,1.52-2.25,1.52-3.71s-.48-2.57-1.55-3.65h0Z"/>
      <path class="cls-2" d="M237.47,113.07c-1.22,0-2.51.16-3.59,1.21-1.01,1.01-1.51,2.27-1.51,3.72s.53,2.71,1.55,3.77c1.04,1.06,2.28,1.59,3.69,1.59h.77s.14,0,.24,0h18.5c1.22,0,2.15.36,2.88,1.1.72.73,1.06,1.67,1.06,2.86l.06,15.88c0,1.19-.36,2.1-1.11,2.81-.76.71-1.74,1.07-2.97,1.07h-24.78c-1.28,0-2.28-.36-3.05-1.07-.76-.71-1.13-1.62-1.13-2.81l-.06-37.25c0-1.39-.48-2.62-1.47-3.65-.98-1.04-2.2-1.57-3.62-1.57s-2.67.54-3.7,1.6c-1.04,1.06-1.57,2.33-1.57,3.77v41.35c0,6.65,3.34,10.01,9.88,10.01l34.05.02c6.53,0,9.84-3.34,9.84-9.92v-24.77c0-6.45-3.15-9.62-9.61-9.7l-24.34-.03h0Z"/>
      <path class="cls-2" d="M330.31,122.2c1-1.01,1.52-2.26,1.52-3.7s-.52-2.73-1.56-3.78c-1.07-1.09-2.31-1.65-3.68-1.65h-38.11c-6.35.14-9.53,3.41-9.49,9.7,0,.12-.21,13.49-.21,15.49v14c0,1.4.51,2.65,1.52,3.68,1,1.03,2.22,1.56,3.58,1.56,1.43,0,2.67-.52,3.68-1.56,1.03-1.09,1.56-2.32,1.56-3.68l.02-9.24.06-10.03.02-6.99c0-1.71.8-2.59,2.37-2.59h35.16c1.23,0,2.51-.15,3.59-1.22h0Z"/>
      <path class="cls-2" d="M152.69,114.58c-.98-1-2.2-1.49-3.69-1.49h-28.06c-.48.03-.9-.02-1.09-.02-.73-.02-1.19-.27-1.61-.91-.96-1.38-3-1.87-4.56-1.87s-3.01.63-4.05,1.79c-.98,1.1-1.18,2.27-1.18,3.69v6.23c-.02.26-.03.53-.03.83v29.39c0,1.41.53,2.65,1.56,3.71,1.03,1.05,2.27,1.58,3.71,1.58s2.62-.5,3.6-1.52c1-1.01,1.49-2.24,1.49-3.71v-24.82c0-1.23.41-2.3,1.13-2.96.75-.7,1.71-1.07,2.95-1.08h26.29c1.52,0,2.65-.44,3.58-1.36,1.02-1,1.53-2.25,1.53-3.7s-.51-2.73-1.56-3.77h0Z"/>
      <path class="cls-2" d="M319.26,137.64h0c0-1.59-.59-2.94-1.77-4-1.12-1.02-2.51-1.56-4.1-1.56h-9.94c-1.6,0-2.98.53-4.12,1.56-1.18,1.06-1.77,2.41-1.77,4h0c0,1.59.59,2.94,1.77,4.01,1.14,1.03,2.52,1.55,4.12,1.55h9.94c1.59,0,2.98-.52,4.1-1.55,1.18-1.07,1.77-2.42,1.77-4h0Z"/>
    </g>
    <g>
      <g>
        <path class="cls-2" d="M426.84,170.54h27.75v101.91h-27.75v-101.91Z"/>
        <path class="cls-2" d="M520.56,170.58c-28.14,0-50.93,22.81-50.93,50.94s22.8,50.95,50.93,50.95,50.94-22.81,50.94-50.95-22.8-50.94-50.94-50.94ZM520.56,248.89c-15.12,0-27.38-12.25-27.38-27.38s12.26-27.37,27.38-27.37,27.37,12.25,27.37,27.37-12.25,27.38-27.37,27.38Z"/>
        <g>
          <path class="cls-2" d="M226.82,170.52v59.57c0,13.28,4.56,23.76,13.55,31.13,9.06,7.44,20.09,11.21,32.78,11.21s23.7-3.77,32.76-11.21c8.99-7.38,13.55-17.86,13.55-31.13v-59.57h-25.22v59.57c0,5.86-2.12,10.46-6.3,13.69-4.09,3.17-9.06,4.76-14.78,4.76s-10.72-1.59-14.8-4.76c-4.19-3.23-6.31-7.83-6.31-13.69v-59.57h-25.22Z"/>
          <path class="cls-2" d="M351.54,247.85l-20.63-77.32,26.02-.02,16.03,59.77,15.85-59.75,25.67-.02-20.64,77.34c-2.3,8.64-4.67,14.9-7.14,18.78-2.47,3.88-7.32,5.81-14.54,5.81-6.34,0-10.88-2.15-13.61-6.48-2.74-4.32-5.07-10.35-7.01-18.12Z"/>
          <path class="cls-2" d="M186.76,170.53v7.96c-7.3-4.63-15.84-7.46-25.02-7.86-.75-.05-1.49-.08-2.22-.08-28.14,0-50.95,22.81-50.95,50.94h0v.02c0,28.14,22.8,50.95,50.93,50.95,10.03,0,19.38-2.91,27.26-7.92v7.8h23.7v-101.82h-23.7ZM186.87,221.51c0,15.13-12.25,27.38-27.37,27.38s-27.38-12.25-27.38-27.38,12.26-27.37,27.38-27.37,27.37,12.25,27.37,27.37Z"/>
        </g>
      </g>
      <g>
        <path class="cls-2" d="M742.72,272.06c-4.54,0-8.36-.57-9.44-1.13-2.1-1.09-2.84-2.25-2.84-4.43l.06-91.67c0-1.84.91-3.5,2.31-4.24,1.67-.87,4.94-.87,9.46-.87h30.59c16.88,0,28.63,3.29,34.91,9.79,6.29,6.51,9.49,21.7,9.49,39.23s-3.33,35.95-9.91,42.91c-6.55,6.94-18.34,10.46-35.03,10.46h0l-29.6-.05ZM771.97,187.31c-2.21,0-9.1,0-11.15.1-.83.04-1.48.72-1.48,1.55v63.9c0,.41.16.81.46,1.1.29.29.69.45,1.1.45,0,0,11.52-.03,11.52-.03,3.97,0,8.24-3.93,9.58-8.1,1.97-6.11,2.89-19.09,2.89-27.96,0-9.91-.79-19.5-2.49-23.75-1.23-3.07-5.9-7.27-10.43-7.27Z"/>
        <path class="cls-2" d="M859.37,170.23c-24.52,0-36.46,9.84-36.49,30.08,0,4.64.97,8.8,2.9,12.37,1.94,3.58,4.36,6.36,7.21,8.27,3.13,2.09,6.59,4.04,10.3,5.78,3.68,1.73,7.13,3.06,10.25,3.96,3.51,1.02,6.51,2.23,8.92,3.6,4.05,2.32,4.89,5.1,4.89,7.02,0,2.64-1.09,4.79-3.14,6.24-1.8,1.27-4.74,1.84-9.53,1.84-4.48,0-10.65-1.4-18.94-4.25-7.28-2.5-10.18-3.44-11.32-3.78-.44.47-1.54,2.01-2.76,6.61-1.52,5.69-2.3,11.24-2.32,16.5.14.22.8,1.06,3.24,2.32,3.01,1.56,8.21,3.03,15.46,4.37,7.38,1.37,15.28,2.07,23.49,2.08h.22c8.03,0,14.64-.68,19.64-2.03,4.95-1.33,8.81-3,11.49-4.95,2.67-1.95,4.87-4.28,6.56-6.93,2.77-4.36,4.17-9.29,4.18-14.65,0-5.16-.98-9.73-2.93-13.56-1.95-3.83-4.39-6.81-7.25-8.85-3.12-2.23-6.55-4.2-10.19-5.86-3.68-1.68-7.09-2.93-10.13-3.73-3.42-.9-6.36-1.93-8.73-3.07-4.2-2.01-5.08-4.86-5.08-6.9,0-2.84,1.44-5.13,4.04-6.47,2.04-1.05,5.27-1.53,10.18-1.53,4.94,0,10.73,1.53,17.79,4.64,1.53.63,2.32.91,2.71,1.03.36-.25,1.9-1.5,4.14-6.97,2.26-5.52,3.43-10.7,3.46-15.41-.15-.22-.75-.93-2.74-1.97-2.64-1.39-7.44-2.7-14.29-3.91-7.01-1.22-15.45-1.85-25.09-1.87h-.14Z"/>
        <path class="cls-2" d="M632.45,270.36,637.5,241.32l.65.06c1.34.23,2.47,1.16,2.96,2.42,3.86,10,7.19,17.58,9.89,22.52,2.15,3.91,2.52,5.49,4.3,5.49,2.13.44,6.36-.44,11.18-1.95,5.94-1.86,7.65-3.14,11.8-6.56,8.16-6.74,6.35-8.52,6.21-8.76s-1.19-2.63-7.19-10.53c-4.55-6-7.49-9.1-10.22-12.13-2.79-3.09-5.52-6.06-7.35-8.06-1.34-1.47-1.33-3.67-.04-5.18,8.17-9.52,13.23-15.7,17.2-20.93,5.32-7,6.91-9.7,6.92-9.78,1.73-2.39-3.98-8.36-10.86-12.65-7.89-4.92-17.68-4.98-18.82-1.85-3.87,8.79-10.8,23.16-16.96,30.37-1.21,1.42-3.49,4.03-5.23,3.44-1.86-.62-2.06-4.51-2.09-5.26l.73-24.3c.33-4.59-.53-5.12-2.53-5.92-8.85-3.54-15.1-2.86-25.88-.13-2.66.67-5.39,1.73-5.32,4.4l-1.67,91.38c-.12,3.53,9.05,5.27,16.71,5.12,7.85-.15,17.16-.73,16.83-3.92l.22-18.12c.02-.91.36-1.78.95-2.46l4.68-5.37c.73-.85,1.79-1.33,2.92-1.33Z"/>
        <path class="cls-2" d="M701.01,273.53c-3.66,0-5.89-1.02-7.59-2.01-1.2-.7-1.85-2.25-1.85-4.37l.62-88.43c.22-3.71,1.37-5.05,5.87-6.71,4.6-1.7,9.85-2.57,15.58-2.57s7.57,1.4,8.59,2.76c.5.61.99,2.96.99,6.79l-.21,85.57c0,1.19-.45,5.16-6.24,6.52-5.22,1.22-8.61,1.88-13.75,2.36-.71.06-1.37.09-2,.09Z"/>
      </g>
    </g>
  </g>
</svg>